<?xml version="1.0" encoding="UTF-8" standalone="no"?>
<!-- Created with Inkscape (http://www.inkscape.org/) -->

<svg
   xmlns:dc="http://purl.org/dc/elements/1.1/"
   xmlns:cc="http://creativecommons.org/ns#"
   xmlns:rdf="http://www.w3.org/1999/02/22-rdf-syntax-ns#"
   xmlns:svg="http://www.w3.org/2000/svg"
   xmlns="http://www.w3.org/2000/svg"
   xmlns:sodipodi="http://sodipodi.sourceforge.net/DTD/sodipodi-0.dtd"
   xmlns:inkscape="http://www.inkscape.org/namespaces/inkscape"
   id="svg2"
   version="1.1"
   inkscape:version="0.48.4 r9939"
   width="3240"
   height="2160"
   xml:space="preserve"
   sodipodi:docname="Demo_poster.eps"><metadata
     id="metadata8"><rdf:RDF><cc:Work
         rdf:about=""><dc:format>image/svg+xml</dc:format><dc:type
           rdf:resource="http://purl.org/dc/dcmitype/StillImage" /><dc:title></dc:title></cc:Work></rdf:RDF></metadata><defs
     id="defs6" /><sodipodi:namedview
     pagecolor="#ffffff"
     bordercolor="#666666"
     borderopacity="1"
     objecttolerance="10"
     gridtolerance="10"
     guidetolerance="10"
     inkscape:pageopacity="0"
     inkscape:pageshadow="2"
     inkscape:window-width="1916"
     inkscape:window-height="1023"
     id="namedview4"
     showgrid="false"
     units="in"
     inkscape:zoom="0.28458866"
     inkscape:cx="1673.3406"
     inkscape:cy="1001.9302"
     inkscape:window-x="1920"
     inkscape:window-y="36"
     inkscape:window-maximized="0"
     inkscape:current-layer="g10" /><g
     id="g10"
     inkscape:groupmode="layer"
     inkscape:label="ink_ext_XXXXXX"
     transform="matrix(1.25,0,0,-1.25,0,2160)"><g
       id="g12"
       transform="scale(0.2,0.2)"><path
         d="m 0,0 12960,0 0,8640 L 0,8640 0,0 z"
         style="fill:#d3d4d3;fill-opacity:1;fill-rule:nonzero;stroke:none"
         id="path14"
         inkscape:connector-curvature="0" /><path
         d="m 9690.99,1657.82 c 0,26.01 -13.58,45 -35,45 -3.01,0 -8,-0.13 -10.86,-0.28 l 0,-78.45 c 0.42,-6.7 4.42,-10.28 13.71,-10.28 22.44,0 32.15,18.29 32.15,44.01 m -79.73,-45.15 c 2.86,0.14 8.56,0.86 10.44,1.57 3.42,1.29 4.42,3.86 4.42,7 l 0,73.02 c 0,3.14 -1,5.86 -4.42,7.29 -3.3,1.57 -7.31,2.13 -9.87,2.42 l 0,3.15 47.15,0 c 20,0 53.73,-10.29 53.73,-49.43 0,-33.31 -28.44,-48.16 -56.58,-48.16 l -44.87,0 0,3.14"
         style="fill:#155196;fill-opacity:1;fill-rule:nonzero;stroke:none"
         id="path16"
         inkscape:connector-curvature="0" /><path
         d="m 9790.59,1660.83 c 12.58,0 23.3,5 23.3,21.43 0,15.57 -8.71,20.72 -20.14,20.72 l -9.01,0 0,-42.15 5.85,0 z m 21.72,-29.01 c -1.57,13.28 -4.43,24.7 -19.28,24.7 l -8.29,0 0,-34.85 c 0,-3.13 1,-5.71 4.28,-7 1.87,-0.71 7.72,-1.72 10.3,-2 l 0,-3.15 -48.59,0 0,3.15 c 2.57,0.14 8.71,1 10.58,1.7 3.43,1.29 4.42,3.88 4.42,7.14 l 0,73.04 c 0,3.13 -0.85,5.85 -4.42,7.15 -2.57,1 -8.01,1.98 -10.58,2.27 l 0,3.15 51.01,0 c 18,0 33.45,-6.57 33.45,-22.15 0,-15.58 -14.73,-22.15 -26.3,-25.29 l 0,-1.14 c 7,-0.86 18.29,-4.44 21.15,-14.86 2.14,-7.86 2.85,-14.01 4.56,-20.87 1.44,-5.56 4.44,-6.72 6.86,-6.72 3.58,0 6.72,4.15 6.72,13.01 l 0,3 4.01,0 -0.15,-3.14 c -0.14,-12.58 -5.28,-21.01 -19.58,-21.01 -12,0 -18.01,6.86 -20.15,23.87"
         style="fill:#155196;fill-opacity:1;fill-rule:nonzero;stroke:none"
         id="path18"
         inkscape:connector-curvature="0" /><path
         d="m 9884.35,1612.67 c 2.56,0.28 9.15,1 11.14,1.86 3.43,1.28 4.43,3.72 4.43,6.98 l 0,72.75 c 0,3.14 -0.86,5.57 -4.43,7 -2.72,1.14 -8.58,2.42 -11.14,2.71 l 0,3.15 81.15,0 0,-23.72 -3.85,0 c -1.71,6.43 -9.3,18 -16,19 -3.43,0.43 -7.3,0.58 -11.72,0.58 l -15,0 0,-40.73 10.72,0 c 7.84,0 10.42,2.43 12.28,4.28 2.44,2.43 4.43,9.58 4.87,13.3 l 3.84,0 0,-40.15 -3.84,0 c -0.44,4.28 -2.86,11.84 -4.87,14 -2,2.14 -4.71,4.29 -12.28,4.29 l -10.72,0 0,-31.58 c 0,-11.16 2.43,-12.58 16.14,-12.58 9,0 18.73,-0.14 22.15,3.28 5,5.01 10.57,16.45 12.3,21.01 l 3.57,0 -1.86,-28.58 -86.88,0 0,3.15"
         style="fill:#155196;fill-opacity:1;fill-rule:nonzero;stroke:none"
         id="path20"
         inkscape:connector-curvature="0" /><path
         d="m 10083.7,1698.12 c 0,4 -6,5.28 -13.7,5.85 l 0,3.15 40.4,0 0,-3.15 c -3.3,-0.27 -7.3,-1.13 -9.8,-2.27 -5.6,-2.3 -9.2,-6.3 -12.3,-10.16 -7.9,-9.57 -15.8,-19.86 -22.2,-27.71 7.2,-10.01 23.3,-33.87 27.2,-38.88 3,-3.86 5.7,-7.71 10.5,-10.28 2,-1.14 7,-1.72 10.5,-2 l 0,-3.14 -56,0 0,3.14 c 8.4,0.57 14.8,1.85 14.8,5.72 0,3.71 -9.3,17.28 -20.1,32.58 -6.2,-7.57 -22.7,-28.16 -22.7,-32.58 0,-4.01 6,-5.29 13.7,-5.86 l 0,-3.16 -40.5,0 0,3.16 c 3.3,0.28 7.2,1.13 9.9,2.28 5.6,2.29 9.1,6.28 12.3,10.14 8.8,10.58 17.4,22.15 24.3,30.29 -9.2,13.15 -18.7,27.02 -25.2,36.45 -3.3,4.71 -5.4,7.71 -10.6,10.14 -2.2,1.01 -6.8,1.87 -10.2,2.14 l 0,3.15 55.8,0 0,-3.15 c -8.4,-0.57 -14.7,-1.85 -14.7,-5.71 0,-5.14 11.9,-21.43 18,-30.01 7.3,8.86 20.6,26.01 20.6,29.87"
         style="fill:#155196;fill-opacity:1;fill-rule:nonzero;stroke:none"
         id="path22"
         inkscape:connector-curvature="0" /><path
         d="m 10145.6,1612.67 c 2.5,0.28 9.1,1 11.1,1.86 3.5,1.28 4.5,3.72 4.5,6.98 l 0,72.75 c 0,3.14 -0.9,5.57 -4.5,7 -2.7,1.14 -8.6,2.42 -11.1,2.71 l 0,3.15 81.1,0 0,-23.72 -3.8,0 c -1.7,6.43 -9.3,18 -16,19 -3.5,0.43 -7.3,0.58 -11.7,0.58 l -15,0 0,-40.73 10.7,0 c 7.8,0 10.4,2.43 12.3,4.28 2.4,2.43 4.4,9.58 4.8,13.3 l 3.9,0 0,-40.15 -3.9,0 c -0.4,4.28 -2.8,11.84 -4.8,14 -2,2.14 -4.8,4.29 -12.3,4.29 l -10.7,0 0,-31.58 c 0,-11.16 2.4,-12.58 16.1,-12.58 9,0 18.7,-0.14 22.1,3.28 5.1,5.01 10.6,16.45 12.3,21.01 l 3.6,0 -1.8,-28.58 -86.9,0 0,3.15"
         style="fill:#155196;fill-opacity:1;fill-rule:nonzero;stroke:none"
         id="path24"
         inkscape:connector-curvature="0" /><path
         d="m 10270.2,1612.67 c 2.6,0.28 8.7,1 10.6,1.7 3.4,1.44 4.4,4.01 4.4,7.14 l 0,72.6 c 0,3.15 -0.9,5.58 -4.4,7.15 -2.6,1.14 -8,2.42 -10.6,2.71 l 0,3.15 48.7,0 0,-3.15 c -2.6,-0.29 -7.7,-1.14 -10.3,-1.99 -3.5,-1.14 -4.4,-4 -4.4,-7.16 l 0,-68.43 c 0,-11.72 2,-12.72 16.2,-12.72 7.7,0 16.5,0.42 19.5,3.58 4.3,4.42 10.9,15.57 12.9,21.43 l 3.4,0 -2,-29.16 -84,0 0,3.15"
         style="fill:#155196;fill-opacity:1;fill-rule:nonzero;stroke:none"
         id="path26"
         inkscape:connector-curvature="0" /><path
         d="m 10462.4,1638.39 0,56 c 0,3.15 -1.1,5.44 -4.4,7.16 -2.6,1.27 -7.7,2.13 -9.9,2.42 l 0,3.15 48,0 0,-3.15 c -2.6,-0.29 -7.7,-0.99 -10.1,-1.85 -3.6,-1.14 -4.5,-3.86 -4.5,-7 l 0,-55.16 c 0,-14.58 5.3,-26.15 24.5,-26.15 19.3,0 26.4,13.14 26.4,26.58 l 0,39.86 c 0,11.16 -1.7,17.01 -4.8,19.3 -3,2.13 -11,4.13 -14,4.42 l 0,3.15 42.1,0 0,-3.15 c -2.4,-0.29 -9.9,-1.43 -13.1,-3.57 -3.6,-2.43 -4.6,-8.99 -4.6,-19.29 l 0,-41.43 c 0,-23.16 -19.6,-32.44 -36.4,-32.44 -25.8,0 -39.2,13.57 -39.2,31.15"
         style="fill:#155196;fill-opacity:1;fill-rule:nonzero;stroke:none"
         id="path28"
         inkscape:connector-curvature="0" /><path
         d="m 10609.3,1687.26 0,-50.44 c 0,-11.01 1.7,-17.01 4.9,-19.58 2.4,-2 11.4,-4.29 14,-4.57 l 0,-3.14 -42.2,0 0,3.14 c 2.4,0.28 10.7,2.14 13.2,3.85 3.3,2.44 4.5,8.58 4.5,19.58 l 0,50.01 c 0,4.29 -1.4,8.57 -4.4,11.29 -3.3,2.86 -9.9,5.72 -14.4,6.44 l 0,3.28 32.1,0 55.9,-71.02 0,44.01 c 0,10.57 -1.7,17.15 -4.9,19.44 -2.5,1.86 -11.1,4.15 -14,4.42 l 0,3.15 42,0 0,-3.15 c -2.4,-0.27 -10.3,-1.71 -13.1,-3.71 -3.4,-2.43 -4.6,-9.28 -4.6,-19.29 l 0,-72.16 -7.3,0 -61.7,78.45"
         style="fill:#155196;fill-opacity:1;fill-rule:nonzero;stroke:none"
         id="path30"
         inkscape:connector-curvature="0" /><path
         d="m 10729.1,1612.67 c 2.5,0.14 8.4,0.86 10.2,1.56 3.5,1.3 4.5,3.72 4.5,6.86 l 0,73.31 c 0,3.14 -1,5.43 -4.5,6.86 -2.5,1 -7.5,2.42 -10.2,2.71 l 0,3.15 48.4,0 0,-3.15 c -2.6,-0.29 -7.9,-1.14 -10.4,-1.99 -3.5,-1.14 -4.3,-3.72 -4.3,-6.86 l 0,-73.3 c 0,-3.15 1.1,-5.44 4.3,-6.87 1.7,-0.72 7.8,-2 10.4,-2.28 l 0,-3.15 -48.4,0 0,3.15"
         style="fill:#155196;fill-opacity:1;fill-rule:nonzero;stroke:none"
         id="path32"
         inkscape:connector-curvature="0" /><path
         d="m 10823.2,1693.4 c -1.2,3.57 -2.7,5.72 -6.3,7.86 -2.5,1.44 -6.2,2.58 -9.4,2.71 l 0,3.15 48.2,0 0,-3.15 c -7.9,-0.85 -13.6,-2.42 -13.6,-5.28 0,-1 0.3,-2.43 0.7,-3.57 1.6,-4.72 13.9,-39.88 22.6,-64.03 6.4,15.15 15.4,37.3 18.1,44.45 3.9,10 6.8,16.43 6.8,21.15 0,4.29 -9.3,6.71 -16.3,7.15 l 0,3.28 38.5,0 0,-3.28 c -2.7,-0.14 -6.7,-1.3 -9.2,-2.72 -4,-2.58 -5.9,-6.57 -8,-11.3 -4.5,-10.28 -25.5,-61 -34.1,-81.45 l -7.5,0 c -10,28.02 -26.9,75.17 -30.5,85.03"
         style="fill:#155196;fill-opacity:1;fill-rule:nonzero;stroke:none"
         id="path34"
         inkscape:connector-curvature="0" /><path
         d="m 10940.7,1612.67 c 2.6,0.28 9.1,1 11.1,1.86 3.5,1.28 4.5,3.72 4.5,6.98 l 0,72.75 c 0,3.14 -0.9,5.57 -4.5,7 -2.7,1.14 -8.5,2.42 -11.1,2.71 l 0,3.15 81.2,0 0,-23.72 -3.9,0 c -1.7,6.43 -9.3,18 -16,19 -3.4,0.43 -7.3,0.58 -11.7,0.58 l -15,0 0,-40.73 10.7,0 c 7.9,0 10.4,2.43 12.3,4.28 2.4,2.43 4.4,9.58 4.8,13.3 l 3.9,0 0,-40.15 -3.9,0 c -0.4,4.28 -2.8,11.84 -4.8,14 -2,2.14 -4.7,4.29 -12.3,4.29 l -10.7,0 0,-31.58 c 0,-11.16 2.4,-12.58 16.1,-12.58 9,0 18.7,-0.14 22.2,3.28 5,5.01 10.6,16.45 12.3,21.01 l 3.5,0 -1.8,-28.58 -86.9,0 0,3.15"
         style="fill:#155196;fill-opacity:1;fill-rule:nonzero;stroke:none"
         id="path36"
         inkscape:connector-curvature="0" /><path
         d="m 11104.7,1660.83 c 12.6,0 23.3,5 23.3,21.43 0,15.57 -8.7,20.72 -20.1,20.72 l -9,0 0,-42.15 5.8,0 z m 21.8,-29.01 c -1.6,13.28 -4.4,24.7 -19.3,24.7 l -8.3,0 0,-34.85 c 0,-3.13 1,-5.71 4.3,-7 1.8,-0.71 7.7,-1.72 10.3,-2 l 0,-3.15 -48.6,0 0,3.15 c 2.6,0.14 8.7,1 10.5,1.7 3.5,1.29 4.5,3.88 4.5,7.14 l 0,73.04 c 0,3.13 -0.9,5.85 -4.5,7.15 -2.5,1 -7.9,1.98 -10.5,2.27 l 0,3.15 51,0 c 18,0 33.4,-6.57 33.4,-22.15 0,-15.58 -14.7,-22.15 -26.3,-25.29 l 0,-1.14 c 7,-0.86 18.3,-4.44 21.2,-14.86 2.1,-7.86 2.9,-14.01 4.6,-20.87 1.4,-5.56 4.4,-6.72 6.8,-6.72 3.6,0 6.7,4.15 6.7,13.01 l 0,3 4,0 -0.1,-3.14 c -0.1,-12.58 -5.3,-21.01 -19.6,-21.01 -12,0 -18,6.86 -20.1,23.87"
         style="fill:#155196;fill-opacity:1;fill-rule:nonzero;stroke:none"
         id="path38"
         inkscape:connector-curvature="0" /><path
         d="m 11210.2,1614.81 -4.7,-6.57 -4.9,0 -0.8,34.57 3.4,0 c 5.6,-14.57 15.9,-30.72 32.5,-30.72 11.8,0 18,7.44 18,17.72 0,8.58 -5.2,14.43 -14.8,18.01 -7.1,2.72 -13,4.71 -19.4,7.42 -11.6,5 -17.1,14.01 -17.1,26.44 0,15.29 12.1,27.58 30.7,27.58 8.8,0 17.6,-3.43 22.6,-6.86 l 4.2,6.15 5.1,0 0.5,-33.16 -3.3,0 c -6.4,17.86 -14.8,29.3 -29.7,29.3 -7.1,0 -14.6,-5.29 -14.6,-15.15 0,-8.57 4.7,-13.57 13.9,-17.72 6.7,-2.99 13.4,-4.99 19,-7.44 11.7,-5.13 19.3,-11.56 19.3,-26.7 0,-17.45 -14.2,-30.15 -34.3,-30.15 -13.2,0 -20.9,4.13 -25.6,7.28"
         style="fill:#155196;fill-opacity:1;fill-rule:nonzero;stroke:none"
         id="path40"
         inkscape:connector-curvature="0" /><path
         d="m 11308.5,1612.67 c 2.6,0.14 8.5,0.86 10.3,1.56 3.5,1.3 4.4,3.72 4.4,6.86 l 0,73.31 c 0,3.14 -0.9,5.43 -4.4,6.86 -2.5,1 -7.6,2.42 -10.3,2.71 l 0,3.15 48.5,0 0,-3.15 c -2.6,-0.29 -7.9,-1.14 -10.4,-1.99 -3.5,-1.14 -4.4,-3.72 -4.4,-6.86 l 0,-73.3 c 0,-3.15 1.2,-5.44 4.4,-6.87 1.7,-0.72 7.8,-2 10.4,-2.28 l 0,-3.15 -48.5,0 0,3.15"
         style="fill:#155196;fill-opacity:1;fill-rule:nonzero;stroke:none"
         id="path42"
         inkscape:connector-curvature="0" /><path
         d="m 11410.6,1612.67 c 2.5,0.14 9.7,1.14 11.5,1.86 3.5,1.28 4.5,4.01 4.5,7.14 l 0,81.31 -5,0 c -3.3,0 -7.7,-0.15 -11,-0.58 -6.2,-0.85 -13.9,-14.57 -15.6,-20.87 l -3.6,0 0,25.59 89.3,0 0,-25.59 -3.6,0 c -1.7,6.3 -9.4,20.02 -15.5,20.87 -3.3,0.43 -7.3,0.58 -11,0.58 l -5,0 0,-80.6 c 0,-3.14 1.1,-5.71 4.4,-7.15 1.7,-0.7 9,-2.28 11.6,-2.56 l 0,-3.15 -51,0 0,3.15"
         style="fill:#155196;fill-opacity:1;fill-rule:nonzero;stroke:none"
         id="path44"
         inkscape:connector-curvature="0" /><path
         d="m 11530.6,1612.67 c 2.6,0.14 9.9,1 11.7,1.7 3.5,1.29 4.4,4.01 4.4,7.14 l 0,22.45 c 0,4.43 -1.1,7.43 -4.1,12.87 -5.1,10 -14.3,27 -19,35.01 -2.4,4.27 -5.6,7.71 -8.8,9.71 -2.6,1.43 -6.5,2.28 -9.2,2.42 l 0,3.15 50.5,0 0,-3.15 c -5.1,-0.29 -14.3,-1.57 -14.3,-4.71 0,-1.72 11.1,-23.29 22.1,-42.43 6.3,10.28 22.7,37.72 22.7,40.71 0,4.3 -8.1,6 -14.5,6.43 l 0,3.15 36.7,0 0,-3.15 c -2.6,-0.29 -6.3,-1.71 -8.3,-2.85 -3.9,-2.29 -6,-4.43 -8.9,-8.43 -4.3,-6 -15,-24.15 -21.1,-35.15 -3.9,-6.72 -4.7,-11.01 -4.7,-17.58 l 0,-17.72 c 0,-3.15 1.1,-5.72 4.4,-7.14 1.7,-0.73 9,-2.29 11.6,-2.43 l 0,-3.15 -51.2,0 0,3.15"
         style="fill:#155196;fill-opacity:1;fill-rule:nonzero;stroke:none"
         id="path46"
         inkscape:connector-curvature="0" /><path
         d="m 9541.98,597.07 7.6289,0 0,1112.97 -7.6289,0 0,-1112.97 z"
         style="fill:#155196;fill-opacity:1;fill-rule:nonzero;stroke:none"
         id="path48"
         inkscape:connector-curvature="0" /><path
         d="m 9193.86,1675.45 c 15.44,37.11 55.65,43.21 55.65,43.21 -31.03,0.98 -129.88,-14.77 -138.88,-112.82 -2.96,-32.25 8.98,-59.4 22.35,-81.88 -16.67,12.65 -36.73,34.21 -39.71,63.26 -2.42,23.61 9.97,59.8 9.97,59.8 -23.71,-28.06 -49.01,-63.14 -43.46,-110.65 5.16,-44.29 34.62,-74.19 54.59,-99.24 -14.6,7.13 -23.77,14.47 -37.23,28.52 4.33,-53.15 20.95,-94.02 58.3,-114.13 -47.62,4.56 -57.11,38.08 -70.72,75.66 -9.47,26.19 -25.24,40.99 -39.68,57.09 22.36,-4.5 35,-18.73 45.92,-34.75 -7.08,45.88 -40.14,65.74 -86.89,71.96 19.81,17.94 52.63,0.31 67.85,-8.3 0,0 -9.58,18.88 -18.2,28.14 -22.88,24.52 -72.97,18.76 -102.98,8.72 10.83,18.89 40.31,33.49 65.75,26.01 -15.64,13.66 -34.98,23.21 -59.56,24.84 -42.04,2.79 -77.25,-20.27 -97.99,-36.02 5.02,27.24 27.02,37.52 47.13,49.65 -70.22,11.7 -105.8,-32.14 -129.01,-75.68 -2.14,26.75 21.3,56.92 21.3,56.92 -86.07,-35.55 -73.42,-132.61 -73.42,-132.61 -15.83,9.57 -15.36,45.38 -9.91,62.06 0,0 -17.53,-24.69 -18.07,-60.08 -0.54,-35.76 24.56,-73.87 24.56,-73.87 -25.83,3.59 -41.89,55.25 -41.89,55.25 -14.09,-72.58 47.86,-131.11 47.86,-131.11 -27.82,2.9 -51.83,37.74 -51.83,37.74 9.92,-71.69 73.18,-110.35 73.18,-110.35 -19.77,-4.06 -48.72,15.69 -48.72,15.69 24.29,-55.15 60.24,-81.59 60.24,-81.59 -22.04,-1.1 -45.33,25.64 -45.33,25.64 -2,-25.64 12.27,-59.42 12.27,-59.42 -22.56,7.93 -29.25,40.28 -29.25,40.28 -18.42,-25.84 -14.81,-64.13 -14.81,-64.13 -21.85,14.46 -20.24,45.15 -20.24,45.15 -21.31,-10.66 -33.63,-53.04 -33.63,-53.04 -10.66,22.93 0.58,49.8 0.58,49.8 -29.61,-7.59 -48.4,-42.63 -48.4,-42.63 -1.88,21.44 11.79,46.66 11.79,46.66 -23.29,-0.76 -43.2,-33.83 -43.2,-33.83 -4.08,21.9 16.6,45.91 16.6,45.91 -25.65,2.72 -47.68,-24.78 -47.68,-24.78 -3.07,25.27 21.67,44.06 21.67,44.06 -27.25,6.51 -47.63,-17.69 -47.63,-17.69 -3.79,26.54 25.2,45.09 25.2,45.09 -21.85,9.41 -45.65,-10.05 -45.65,-10.05 -2.72,27.09 27.38,42.45 27.38,42.45 -18.41,12.64 -42.61,0.25 -42.61,0.25 3.99,22.2 31.61,28.18 31.61,28.18 -15.76,17.87 -39.24,16.12 -39.24,16.12 7.84,19.5 33.49,16.13 33.49,16.13 -12.35,17.5 -34.87,23.57 -34.87,23.57 14.08,11.91 34.12,3.66 34.12,3.66 -5.62,19.36 -28.71,30.72 -28.71,30.72 18.06,5.99 35.27,-5.96 35.27,-5.96 -2.17,17.7 -20.96,34.08 -20.96,34.08 20.96,-0.91 35.41,-16.19 35.41,-16.19 -0.19,15.18 -10.52,33.63 -10.52,33.63 16.97,-5.23 32,-22.43 32,-22.43 1.8,14.25 -2.31,22.87 -2.31,22.87 28.26,-10.61 45.83,-31.97 60.81,-55.81 -7.68,43.93 -35.35,75.59 -79.4,79.38 -76.71,6.6 -125.63,-80.39 -125.47,-144.15 0.18,-74.36 25.38,-123.81 58.55,-171.99 38.52,-55.95 105.17,-99.07 167.55,-111.93 -19.88,-6.41 -38.53,-22.31 -38.53,-40.65 32.42,-2.141 59,-16.801 72.77,-34.539 l 113.78,0 c 27.62,0 52.81,0.59 61.51,2.441 20.96,4.508 30.77,51.809 55.84,50.899 24.88,-0.93 17.58,-41.141 -3.75,-42.192 -6.96,-0.359 -10.22,2.93 -16.13,4.949 22.53,-53.898 89.49,7.032 58.29,44.672 36.35,-1.47 33.96,-48.5 8.71,-53.351 39.65,-3.84 51.19,35.633 32.93,64.171 -18.25,28.54 -54.54,23.13 -83.63,9.38 -29.07,-13.72 -55.25,-24.372 -74.6,-26.829 -15.56,-1.961 -30.76,-1.07 -40.94,4.989 -29.71,17.6 23.21,46.82 35.97,54.58 46.92,28.46 96.91,62.6 101.73,130.25 3.63,50.47 -15.36,76.81 -31.01,107.94 -12.84,25.52 -26.44,51.22 -28.53,84.36 -2.86,45.1 30.4,78.66 70.72,76.92 56.56,-2.42 85.52,-47.43 89.34,-104.22 1.48,-22.51 -3.46,-49.32 -4.98,-71.95 -6.29,-94.19 38.89,-142.43 89.32,-186.1 46.26,-39.99 91.61,-66.03 148.89,-90.56 3.96,-36.252 26.07,-76.271 69.47,-57.091 22.5,-38.668 105.97,-31.469 94.29,24.82 -5.45,26.242 -44.23,30.09 -41.49,60.081 1.31,14.29 17.72,22.03 32.81,16.86 15.99,-5.52 23.51,-29.84 22.33,-47.16 25.01,41.75 -0.47,102.68 -52.1,90.58 -26.24,-6.14 -52.13,-52.13 -52.13,-52.13 -33.28,17.99 -65.11,35.87 -65.11,35.87 76.47,3.77 124.86,37.58 153.22,89.45 36.92,-8.56 61.89,16.89 52.09,47.15 0,0 32.29,-9.95 35.94,-36.37 3.66,-26.42 -31.57,-32.44 -51.55,-19.53 0,0 16.93,-40.44 49.33,-32.53 32.42,7.92 28.9,42.32 21.86,56 -7.04,13.68 -36.31,39.55 -28.71,57.03 7.58,17.47 42.79,5.69 37.63,-39.5 25.71,35.9 3.13,93.06 -38.43,93.06 -30.77,0 -42.97,-26.23 -50.87,-53.35 0,0 -9.97,3.84 -21.11,1.25 -6.38,43.58 -33.86,71.98 -78.14,89.31 -39.61,15.53 -78.12,42.38 -81.9,85.61 -1.77,20.4 4.66,36.89 19.86,44.66 39.66,20.27 66.33,-23.41 73.21,-52.13 -0.46,33.75 12.26,49.94 27.27,67.03 -12.07,20.19 -35.57,37.48 -66.98,33.5 -21.78,-2.75 -42.8,-14.53 -42.8,-14.53 10.23,23.4 28.1,64.72 67.6,66.64 32.07,1.53 47.7,-26.74 57.09,-54.6 5.28,52.6 33.37,89.02 59.54,116.62 -30.56,-17.98 -46.28,19.84 -75.69,19.84 -41.98,0 -62.28,-46.38 -97.98,-50.87 -14.92,-1.86 -26.13,8.78 -32.27,13.67 -11.34,8.96 -20.3,37.43 -4.87,74.56 m 140.33,-54.38 c 10.52,-0.53 21.01,-6.7 20.87,-15.23 -0.2,-13.04 -12.62,-16.21 -22.23,-15.25 -12.91,1.27 -18.92,8.75 -18.74,16.44 0.21,8.95 9.53,14.58 20.1,14.04 m -175.18,-427.12 c -10.75,-2.05 -24.23,2.52 -32.25,8.68 -25.9,19.86 -36.54,73.19 -38.45,114.14 11.07,-23.52 28.72,-60.69 60.78,-50.88 10.94,3.37 23.91,17.96 23.91,17.96 10.01,-27.34 18.39,-83.77 -13.99,-89.9 m 32.77,346.67 c -14.52,5.58 -10.43,50.34 -10.43,50.34 3.46,-20.35 27.57,-34.23 48.39,-22.32 0,0 -21.25,-34.43 -37.96,-28.02 M 9334.6,954.809 c -12.72,-20.86 -47.55,2.312 -47.55,2.312 10.02,7.731 16.4,21.27 18.57,37.938 17.61,-1.207 42.49,-18.098 28.98,-40.25 m -83.7,31.171 c 0,0 -3.55,-19.32 -14.79,-13.761 -11.24,5.562 -13.91,22.609 -13.91,22.609 0,0 12.97,-5.457 28.7,-8.848 m 116.56,190.59 c 3.02,10.51 3.05,20.67 2.46,32.26 17.86,-3.61 16.71,-30.91 -2.46,-32.26"
         style="fill:#155196;fill-opacity:1;fill-rule:nonzero;stroke:none"
         id="path50"
         inkscape:connector-curvature="0" /><path
         d="m 9694.94,655.949 -3.16,0 c -1.72,16.903 -6.2,29.18 -23.24,29.18 -17.43,0 -35.79,-23.25 -35.79,-53.207 0,-18.09 7.8,-31.293 24.69,-31.293 13.6,0 21.79,8.57 30.25,21.121 l 3.02,-1.84 c -8.04,-12.281 -18.47,-24.828 -38.55,-24.828 -21.65,0 -34.06,13.598 -34.06,34.469 0,33.398 26.4,59.41 52.68,59.41 9.38,0 14,-2.379 19.67,-7.121 l 5.43,6.719 5.4,0 -6.34,-32.61"
         style="fill:#211c1d;fill-opacity:1;fill-rule:nonzero;stroke:none"
         id="path52"
         inkscape:connector-curvature="0" /><path
         d="m 9731.94,655.68 c -13.86,0 -22.58,-24.289 -22.58,-39.871 0,-12.137 3.96,-18.098 9.11,-18.098 14.79,0 22.58,24.18 22.58,39.891 0,12.148 -4.36,18.078 -9.11,18.078 m -15.45,-60.469 c -8.98,0 -19.54,6.609 -19.54,23.109 0,14.129 12.41,39.621 36.97,39.621 8.98,0 19.55,-6.742 19.55,-23.242 0,-14.129 -12.16,-39.488 -36.98,-39.488"
         style="fill:#211c1d;fill-opacity:1;fill-rule:nonzero;stroke:none"
         id="path54"
         inkscape:connector-curvature="0" /><path
         d="m 9773.29,613.699 c -1.32,-3.957 -2.52,-8.058 -2.52,-10.027 0,-4.231 2.26,-4.75 4.63,-4.75 6.34,0 10.42,6.199 14.79,17.43 l 2.37,-0.801 c -4.75,-11.75 -9.5,-19.942 -18.88,-19.942 -5.67,0 -13.47,2.102 -13.47,10.172 0,3.168 1.2,7.129 2.38,11.09 l 19.15,60.598 c 1.44,4.492 1.84,7.133 1.84,8.851 0,2.91 -2.37,3.832 -5.28,4.219 -3.3,0.402 -4.75,0.402 -7.92,0.531 l 0,2.641 28.92,1.328 -26.01,-81.34"
         style="fill:#211c1d;fill-opacity:1;fill-rule:nonzero;stroke:none"
         id="path56"
         inkscape:connector-curvature="0" /><path
         d="m 9810.8,613.699 c -1.32,-3.957 -2.52,-8.058 -2.52,-10.027 0,-4.231 2.26,-4.75 4.62,-4.75 6.34,0 10.43,6.199 14.8,17.43 l 2.37,-0.801 c -4.75,-11.75 -9.51,-19.942 -18.88,-19.942 -5.67,0 -13.48,2.102 -13.48,10.172 0,3.168 1.2,7.129 2.39,11.09 l 19.14,60.598 c 1.45,4.492 1.84,7.133 1.84,8.851 0,2.91 -2.37,3.832 -5.27,4.219 -3.3,0.402 -4.76,0.402 -7.92,0.531 l 0,2.641 28.92,1.328 -26.01,-81.34"
         style="fill:#211c1d;fill-opacity:1;fill-rule:nonzero;stroke:none"
         id="path58"
         inkscape:connector-curvature="0" /><path
         d="m 9867.71,655.289 c -7.66,0 -15.44,-13.988 -19.01,-27.187 18.61,3.3 24.82,14.117 24.82,20.187 0,4.242 -1.59,7 -5.81,7 m -19.67,-29.98 c -0.92,-4.348 -1.98,-8.707 -1.98,-12.399 0,-8.969 2.9,-13.34 9.77,-13.34 9.64,0 15.97,7.672 21.38,17.7 l 2.39,-1.192 c -8.19,-15.578 -17.17,-20.867 -25.75,-20.867 -9.38,0 -20.21,4.359 -20.21,21.141 0,13.589 13.08,41.589 37.77,41.589 5.94,0 11.23,-2.91 11.23,-8.851 0,-14.281 -21.67,-21.781 -34.6,-23.781"
         style="fill:#211c1d;fill-opacity:1;fill-rule:nonzero;stroke:none"
         id="path60"
         inkscape:connector-curvature="0" /><path
         d="m 9914.86,655.832 c -10.3,0 -13.33,-14.93 -13.33,-21.93 0,-6.191 3.17,-12.273 8.05,-12.273 9.91,0 13.86,15.441 13.86,23.5 0,5.531 -2.89,10.703 -8.58,10.703 m 7.4,-61.152 c -7,1.601 -14.4,1.851 -21.26,2.121 -8.99,-2.242 -13.74,-7.66 -13.74,-15.582 0,-5.16 4.1,-12.418 16.12,-12.418 14.66,0 23.76,6.871 23.76,18.359 0,2.512 -1.58,6.742 -4.88,7.52 m 22.7,50.84 c -4.22,0 -4.89,2.769 -4.89,8.191 -4.22,0 -6.18,-0.93 -8.18,-2.25 l 0,-0.801 c 1.59,-2.371 2.65,-5.93 2.65,-8.961 0,-13.207 -12.15,-22.187 -24.7,-22.187 l -8.31,0 c -2.77,-1.321 -5.55,-2.91 -5.55,-6.461 0,-4.903 4.36,-5.422 14.13,-6.492 3.96,-0.387 12.02,-1.321 14.66,-1.707 6.6,-1.051 12.94,-6.071 12.94,-14.782 0,-12.941 -12.94,-23.91 -37.63,-23.91 -16.12,0 -24.17,6.082 -24.17,14.531 0,8.59 7.78,15.188 22.32,17.161 l 0,0.929 c -5.95,1.18 -11.63,3.301 -11.63,9.11 0,8.058 9.11,11.359 13.33,12.679 l 0,0.649 c -6.33,2.922 -10.02,7.929 -10.02,13.742 0,13.07 11.62,22.98 25.74,22.98 8.85,0 15.19,-3.832 16.91,-3.832 4.62,2.243 6.86,3.832 12.4,3.832 3.04,0 6.08,-2.652 6.08,-6.222 0,-3.688 -2.64,-6.199 -6.08,-6.199"
         style="fill:#211c1d;fill-opacity:1;fill-rule:nonzero;stroke:none"
         id="path62"
         inkscape:connector-curvature="0" /><path
         d="m 9981.3,655.289 c -7.67,0 -15.45,-13.988 -19.01,-27.187 18.61,3.3 24.81,14.117 24.81,20.187 0,4.242 -1.57,7 -5.8,7 m -19.68,-29.98 c -0.92,-4.348 -1.98,-8.707 -1.98,-12.399 0,-8.969 2.91,-13.34 9.77,-13.34 9.63,0 15.97,7.672 21.39,17.7 l 2.38,-1.192 c -8.19,-15.578 -17.16,-20.867 -25.74,-20.867 -9.37,0 -20.21,4.359 -20.21,21.141 0,13.589 13.06,41.589 37.76,41.589 5.94,0 11.22,-2.91 11.22,-8.851 0,-14.281 -21.65,-21.781 -34.59,-23.781"
         style="fill:#211c1d;fill-opacity:1;fill-rule:nonzero;stroke:none"
         id="path64"
         inkscape:connector-curvature="0" /><path
         d="m 10060.1,655.68 c -13.8,0 -22.5,-24.289 -22.5,-39.871 0,-12.137 3.9,-18.098 9.1,-18.098 14.8,0 22.5,24.18 22.5,39.891 0,12.148 -4.3,18.078 -9.1,18.078 m -15.4,-60.469 c -9,0 -19.5,6.609 -19.5,23.109 0,14.129 12.4,39.621 36.9,39.621 9,0 19.6,-6.742 19.6,-23.242 0,-14.129 -12.2,-39.488 -37,-39.488"
         style="fill:#211c1d;fill-opacity:1;fill-rule:nonzero;stroke:none"
         id="path66"
         inkscape:connector-curvature="0" /><path
         d="m 10147.8,677.34 c -2.6,0 -7.4,1.449 -7.4,5.808 0,1.852 1.6,4.364 2,7.133 -0.6,1.981 -1.4,2.239 -2.9,2.239 -8.4,0 -14.8,-8.84 -19.9,-27.461 l -2.7,-9.227 16.7,0 -1.5,-4.371 -16.3,0 c -4.3,-16.242 -9.3,-36.832 -13.8,-51.231 -3.1,-10.16 -7.9,-20.058 -16,-26.671 -6.8,-5.809 -12,-7.657 -18.5,-7.657 -10.4,0 -13.3,5.289 -13.3,10.559 0,2.91 2.4,6.871 6.9,6.871 2.7,0 7.1,-1.582 7.1,-6.344 0,-2.758 -1.2,-3.949 -2.8,-6.207 0.3,-1.84 1.8,-2.371 2.7,-2.371 9.8,0 15.6,8.719 21.5,28.121 6.5,21.258 11,41.071 14.5,54.93 l -14,0 1.4,4.371 13.9,0 1.5,5.27 c 2.8,10.699 7.3,19.418 15.4,26.796 6.3,5.68 12.6,7.274 18.8,7.274 9.1,0 13.5,-5.813 13.5,-11.223 0,-2.25 -2.3,-6.609 -6.8,-6.609"
         style="fill:#211c1d;fill-opacity:1;fill-rule:nonzero;stroke:none"
         id="path68"
         inkscape:connector-curvature="0" /><path
         d="m 10236.4,666.648 -3.3,0 0,1.063 c 0,7.508 -3.4,14.641 -9.2,15.437 -2.8,0.403 -6.1,0.532 -10.3,0.532 l -14.3,0 -10.7,-38.16 10.3,0 c 7,0 10.6,2.511 12.6,4.23 2.5,1.969 5.9,8.719 7.3,12.02 l 3.4,0 -10.3,-36.719 -3.2,0 c 0.3,1.59 0.4,3.828 0.4,5.949 0,3.031 -0.4,5.813 -1,6.859 -1.2,1.723 -2.8,4.09 -10.1,4.09 l -10.3,0 -8.2,-29.168 c -0.8,-2.64 -1.3,-4.89 -1.3,-6.34 0,-4.89 3.7,-5.691 13.4,-5.691 8.8,0 17.8,0 21.6,3.051 6,4.738 13.3,14.66 15.5,18.609 l 3.3,0 -8.6,-25.34 -75.8,0 0.9,2.758 c 1.9,0 8.9,0.793 11.1,1.594 3.3,1.187 4.9,3.558 5.7,6.598 l 18.6,67.339 c 0.3,1.192 0.5,2.371 0.5,3.161 0,1.73 -0.6,2.66 -2.6,3.582 -2.1,0.918 -7.6,2.109 -9.9,2.25 l 0.9,2.89 69.3,0 -5.7,-20.594"
         style="fill:#211c1d;fill-opacity:1;fill-rule:nonzero;stroke:none"
         id="path70"
         inkscape:connector-curvature="0" /><path
         d="m 10294.6,595.609 c -5.6,0 -14.2,2.243 -14.2,10.301 0,3.16 1.2,6.461 2.9,10.961 l 7.8,20.59 c 1.2,3.168 2.5,7.398 2.5,9.91 0,5.551 -3,6.34 -6.4,6.34 -7.2,0 -14.7,-7.531 -19.2,-16.383 l -13.2,-40.258 -12,0 14.3,42.25 c 1,3.16 2.5,9.11 2.5,10.692 0,3.699 -1.2,4.758 -3.7,4.758 -6.2,0 -9.9,-6.61 -14.3,-17.84 l -2.6,0.929 c 4.7,11.629 9.3,20.082 18.7,20.082 5.7,0 12.2,-2.109 12.2,-12.019 l 0.5,-0.152 c 4.6,6.351 11.1,12.171 18.8,12.171 8.8,0 15.1,-6.882 15.1,-14.812 0,-1.828 -1.3,-6.59 -2.5,-9.75 l -7.4,-19.41 c -1.7,-4.617 -2.9,-8.328 -2.9,-10.321 0,-4.207 2.4,-4.726 4.9,-4.726 6.2,0 10.2,6.199 14.5,17.43 l 2.5,-0.801 c -4.7,-11.75 -9.5,-19.942 -18.8,-19.942"
         style="fill:#211c1d;fill-opacity:1;fill-rule:nonzero;stroke:none"
         id="path72"
         inkscape:connector-curvature="0" /><path
         d="m 10346.7,655.832 c -10.3,0 -13.3,-14.93 -13.3,-21.93 0,-6.191 3.2,-12.273 8.1,-12.273 9.9,0 13.8,15.441 13.8,23.5 0,5.531 -2.9,10.703 -8.6,10.703 m 7.4,-61.152 c -7,1.601 -14.4,1.851 -21.2,2.121 -9,-2.242 -13.8,-7.66 -13.8,-15.582 0,-5.16 4.1,-12.418 16.2,-12.418 14.6,0 23.7,6.871 23.7,18.359 0,2.512 -1.6,6.742 -4.9,7.52 m 22.7,50.84 c -4.2,0 -4.8,2.769 -4.8,8.191 -4.3,0 -6.2,-0.93 -8.2,-2.25 l 0,-0.801 c 1.6,-2.371 2.6,-5.93 2.6,-8.961 0,-13.207 -12.1,-22.187 -24.7,-22.187 l -8.3,0 c -2.8,-1.321 -5.5,-2.91 -5.5,-6.461 0,-4.903 4.3,-5.422 14.1,-6.492 3.9,-0.387 12,-1.321 14.6,-1.707 6.6,-1.051 13,-6.071 13,-14.782 0,-12.941 -13,-23.91 -37.6,-23.91 -16.2,0 -24.2,6.082 -24.2,14.531 0,8.59 7.8,15.188 22.3,17.161 l 0,0.929 c -5.9,1.18 -11.6,3.301 -11.6,9.11 0,8.058 9.1,11.359 13.3,12.679 l 0,0.649 c -6.3,2.922 -10,7.929 -10,13.742 0,13.07 11.6,22.98 25.7,22.98 8.9,0 15.2,-3.832 16.9,-3.832 4.7,2.243 6.9,3.832 12.4,3.832 3.1,0 6.1,-2.652 6.1,-6.222 0,-3.688 -2.6,-6.199 -6.1,-6.199"
         style="fill:#211c1d;fill-opacity:1;fill-rule:nonzero;stroke:none"
         id="path74"
         inkscape:connector-curvature="0" /><path
         d="m 10411.5,673.91 c -4.4,0 -6.6,3.301 -6.6,7.391 0,5.019 3.4,9.238 8.9,9.238 3.7,0 6.1,-3.57 6.1,-7.25 0,-5.019 -3,-9.379 -8.4,-9.379 m -11.9,-78.301 c -5.7,0 -13.8,2.243 -13.8,10.301 0,3.16 1,6.34 2.7,10.961 l 8.8,22.449 c 1.5,3.692 3.1,8.84 3.1,10.43 0,3.82 -1.9,5.02 -4.4,5.02 -6.2,0 -9.9,-6.61 -14.3,-17.84 l -2.5,0.929 c 4.8,11.629 9.3,20.082 18.8,20.082 5.7,0 13.2,-3.441 13.2,-11.23 0,-3.031 -2.5,-9.512 -4.1,-13.332 l -7.5,-19.41 c -1.9,-4.617 -3.1,-8.449 -3.1,-10.438 0,-4.218 2.4,-4.621 4.8,-4.621 6.3,0 10.3,6.211 14.6,17.442 l 2.4,-0.801 c -4.7,-11.75 -9.5,-19.942 -18.7,-19.942"
         style="fill:#211c1d;fill-opacity:1;fill-rule:nonzero;stroke:none"
         id="path76"
         inkscape:connector-curvature="0" /><path
         d="m 10478.2,595.609 c -5.6,0 -14.2,2.243 -14.2,10.301 0,3.16 1.2,6.461 2.9,10.961 l 7.8,20.59 c 1.2,3.168 2.5,7.398 2.5,9.91 0,5.551 -3,6.34 -6.5,6.34 -7.1,0 -14.6,-7.531 -19.1,-16.383 l -13.2,-40.258 -12,0 14.2,42.25 c 1.1,3.16 2.6,9.11 2.6,10.692 0,3.699 -1.2,4.758 -3.7,4.758 -6.2,0 -9.9,-6.61 -14.3,-17.84 l -2.6,0.929 c 4.7,11.629 9.3,20.082 18.7,20.082 5.7,0 12.2,-2.109 12.2,-12.019 l 0.5,-0.152 c 4.6,6.351 11.1,12.171 18.7,12.171 8.9,0 15.2,-6.882 15.2,-14.812 0,-1.828 -1.3,-6.59 -2.5,-9.75 l -7.4,-19.41 c -1.7,-4.617 -2.9,-8.328 -2.9,-10.321 0,-4.207 2.4,-4.726 4.9,-4.726 6.2,0 10.2,6.199 14.5,17.43 l 2.5,-0.801 c -4.7,-11.75 -9.5,-19.942 -18.8,-19.942"
         style="fill:#211c1d;fill-opacity:1;fill-rule:nonzero;stroke:none"
         id="path78"
         inkscape:connector-curvature="0" /><path
         d="m 10534.4,655.289 c -7.6,0 -15.4,-13.988 -19,-27.187 18.6,3.3 24.8,14.117 24.8,20.187 0,4.242 -1.6,7 -5.8,7 m -19.7,-29.98 c -0.9,-4.348 -1.9,-8.707 -1.9,-12.399 0,-8.969 2.9,-13.34 9.7,-13.34 9.7,0 16,7.672 21.4,17.7 l 2.4,-1.192 c -8.2,-15.578 -17.2,-20.867 -25.7,-20.867 -9.4,0 -20.2,4.359 -20.2,21.141 0,13.589 13,41.589 37.7,41.589 6,0 11.2,-2.91 11.2,-8.851 0,-14.281 -21.6,-21.781 -34.6,-23.781"
         style="fill:#211c1d;fill-opacity:1;fill-rule:nonzero;stroke:none"
         id="path80"
         inkscape:connector-curvature="0" /><path
         d="m 10585.7,655.289 c -7.7,0 -15.5,-13.988 -19,-27.187 18.6,3.3 24.8,14.117 24.8,20.187 0,4.242 -1.6,7 -5.8,7 m -19.7,-29.98 c -0.9,-4.348 -2,-8.707 -2,-12.399 0,-8.969 2.9,-13.34 9.8,-13.34 9.6,0 16,7.672 21.4,17.7 l 2.3,-1.192 c -8.1,-15.578 -17.1,-20.867 -25.7,-20.867 -9.4,0 -20.2,4.359 -20.2,21.141 0,13.589 13.1,41.589 37.8,41.589 5.9,0 11.2,-2.91 11.2,-8.851 0,-14.281 -21.7,-21.781 -34.6,-23.781"
         style="fill:#211c1d;fill-opacity:1;fill-rule:nonzero;stroke:none"
         id="path82"
         inkscape:connector-curvature="0" /><path
         d="m 10651.8,641.551 c -4.6,0 -6.4,2.519 -6.4,5.551 0,3.168 3,4.488 3,5.679 0,1.18 0.1,1.719 -2,1.719 -4.6,0 -10.7,-10.039 -14.5,-17.039 l -12.3,-40.391 -11.9,0 13.2,42.25 c 1,2.77 2.5,9.11 2.5,10.692 0,3.828 -1.1,4.758 -3.7,4.758 -6.2,0 -10,-7.008 -14.2,-17.84 l -2.7,0.929 c 4.8,11.629 9.4,20.082 18.8,20.082 5.7,0 11.2,-3.711 11.2,-13.339 l 0.5,-0.141 c 4.4,6.738 8.4,13.48 16.8,13.48 5.6,0 8.6,-3.98 8.6,-8.062 0,-4.109 -2.2,-8.328 -6.9,-8.328"
         style="fill:#211c1d;fill-opacity:1;fill-rule:nonzero;stroke:none"
         id="path84"
         inkscape:connector-curvature="0" /><path
         d="m 10690.3,673.91 c -4.4,0 -6.6,3.301 -6.6,7.391 0,5.019 3.4,9.238 8.9,9.238 3.7,0 6.1,-3.57 6.1,-7.25 0,-5.019 -3,-9.379 -8.4,-9.379 m -11.9,-78.301 c -5.7,0 -13.8,2.243 -13.8,10.301 0,3.16 1,6.34 2.7,10.961 l 8.8,22.449 c 1.5,3.692 3.1,8.84 3.1,10.43 0,3.82 -1.9,5.02 -4.4,5.02 -6.2,0 -9.9,-6.61 -14.3,-17.84 l -2.5,0.929 c 4.8,11.629 9.3,20.082 18.8,20.082 5.7,0 13.2,-3.441 13.2,-11.23 0,-3.031 -2.5,-9.512 -4.1,-13.332 l -7.5,-19.41 c -1.9,-4.617 -3.1,-8.449 -3.1,-10.438 0,-4.218 2.4,-4.621 4.8,-4.621 6.3,0 10.3,6.211 14.7,17.442 l 2.3,-0.801 c -4.7,-11.75 -9.5,-19.942 -18.7,-19.942"
         style="fill:#211c1d;fill-opacity:1;fill-rule:nonzero;stroke:none"
         id="path86"
         inkscape:connector-curvature="0" /><path
         d="m 10757,595.609 c -5.6,0 -14.2,2.243 -14.2,10.301 0,3.16 1.2,6.461 2.9,10.961 l 7.8,20.59 c 1.2,3.168 2.5,7.398 2.5,9.91 0,5.551 -3,6.34 -6.4,6.34 -7.2,0 -14.7,-7.531 -19.2,-16.383 l -13.2,-40.258 -12,0 14.3,42.25 c 1,3.16 2.5,9.11 2.5,10.692 0,3.699 -1.2,4.758 -3.7,4.758 -6.2,0 -9.9,-6.61 -14.3,-17.84 l -2.6,0.929 c 4.7,11.629 9.3,20.082 18.7,20.082 5.7,0 12.2,-2.109 12.2,-12.019 l 0.5,-0.152 c 4.6,6.351 11.1,12.171 18.7,12.171 8.9,0 15.2,-6.882 15.2,-14.812 0,-1.828 -1.3,-6.59 -2.5,-9.75 l -7.4,-19.41 c -1.7,-4.617 -2.9,-8.328 -2.9,-10.321 0,-4.207 2.4,-4.726 4.9,-4.726 6.2,0 10.2,6.199 14.5,17.43 l 2.5,-0.801 c -4.7,-11.75 -9.5,-19.942 -18.8,-19.942"
         style="fill:#211c1d;fill-opacity:1;fill-rule:nonzero;stroke:none"
         id="path88"
         inkscape:connector-curvature="0" /><path
         d="m 10809.1,655.832 c -10.3,0 -13.3,-14.93 -13.3,-21.93 0,-6.191 3.2,-12.273 8.1,-12.273 9.9,0 13.8,15.441 13.8,23.5 0,5.531 -2.9,10.703 -8.6,10.703 m 7.4,-61.152 c -7,1.601 -14.4,1.851 -21.2,2.121 -9,-2.242 -13.8,-7.66 -13.8,-15.582 0,-5.16 4.1,-12.418 16.2,-12.418 14.6,0 23.7,6.871 23.7,18.359 0,2.512 -1.6,6.742 -4.9,7.52 m 22.7,50.84 c -4.2,0 -4.8,2.769 -4.8,8.191 -4.3,0 -6.3,-0.93 -8.2,-2.25 l 0,-0.801 c 1.5,-2.371 2.6,-5.93 2.6,-8.961 0,-13.207 -12.1,-22.187 -24.7,-22.187 l -8.3,0 c -2.8,-1.321 -5.5,-2.91 -5.5,-6.461 0,-4.903 4.3,-5.422 14.1,-6.492 3.9,-0.387 12,-1.321 14.6,-1.707 6.6,-1.051 13,-6.071 13,-14.782 0,-12.941 -13,-23.91 -37.7,-23.91 -16.1,0 -24.1,6.082 -24.1,14.531 0,8.59 7.8,15.188 22.3,17.161 l 0,0.929 c -5.9,1.18 -11.6,3.301 -11.6,9.11 0,8.058 9.1,11.359 13.3,12.679 l 0,0.649 c -6.3,2.922 -10,7.929 -10,13.742 0,13.07 11.6,22.98 25.7,22.98 8.9,0 15.2,-3.832 16.9,-3.832 4.7,2.243 6.9,3.832 12.4,3.832 3.1,0 6.1,-2.652 6.1,-6.222 0,-3.688 -2.6,-6.199 -6.1,-6.199"
         style="fill:#211c1d;fill-opacity:1;fill-rule:nonzero;stroke:none"
         id="path90"
         inkscape:connector-curvature="0" /><path
         d="m 9855.1,803.531 -240.98,0 0,9.278 c 7.59,0.429 24.89,2.543 30.38,4.64 10.13,3.813 13.08,11.84 13.08,21.102 l 0,214.829 c 0,9.29 -2.53,16.45 -13.08,21.1 -7.6,3.38 -22.79,7.59 -30.38,8.02 l 0,9.29 132.1,0 0,-9.29 c -7.6,-0.43 -23.23,-3.38 -30.82,-5.92 -10.56,-3.37 -13.09,-11.8 -13.09,-21.09 l 0,-201.74 c 0,-35.871 4.64,-38.82 50.24,-38.82 24.47,0 53.59,2.109 62.03,10.961 10.98,11.82 32.5,45.168 36.72,59.519 l 10.13,0 -6.33,-81.879"
         style="fill:#211c1d;fill-opacity:1;fill-rule:nonzero;stroke:none"
         id="path92"
         inkscape:connector-curvature="0" /><path
         d="m 9919.26,849.531 c 0,-23.211 10.54,-33.75 28.7,-33.75 21.94,0 31.23,9.688 41.36,22.348 l 1.68,73.859 c -42.2,-13.066 -71.74,-24.886 -71.74,-62.457 m 108.84,-50.218 c -19.8,0 -30.34,8.847 -37.1,28.277 l -1.25,0 c -15.2,-17.738 -37.14,-29.129 -62.46,-29.129 -29.13,0 -48.96,17.719 -48.96,44.738 0,34.61 20.24,46.43 41.36,54.453 24.05,9.278 53.16,16.45 70.9,26.578 l 0,23.629 c 0,7.602 -1.27,42.641 -36.3,42.641 -16.04,0 -21.95,-9.719 -25.75,-14.352 0,-6.347 3.8,-15.617 3.8,-24.906 0,-8.863 -9.28,-18.14 -24.47,-18.14 -13.93,0 -19,10.957 -19,21.937 0,25.32 35.88,44.742 67.95,44.742 41.78,0 72.58,-6.332 72.58,-62.472 0,-37.129 -2.1,-80.598 -2.1,-94.528 0,-6.32 5.9,-21.519 19.8,-21.519 14,0 15.2,16.449 16.5,32.488 l 9.3,0 c -2.5,-39.25 -18.6,-54.437 -44.8,-54.437"
         style="fill:#211c1d;fill-opacity:1;fill-rule:nonzero;stroke:none"
         id="path94"
         inkscape:connector-curvature="0" /><path
         d="m 10177.1,982.48 c -20.2,0 -33.7,-8.031 -43.9,-19.839 l 0,-117.762 c 4.7,-13.488 18.2,-38.41 46.9,-38.41 32,0 56.1,33.351 56.1,91.183 0,42.188 -16.5,84.828 -59.1,84.828 m 6.4,-184.859 c -27.9,0 -54.1,13.078 -66.7,21.098 l -15.6,-24.899 -8.1,1.692 c 1.3,16.879 1.7,47.687 1.7,78.078 l 0,200.89 c 0,9.28 -4.6,19.84 -11.4,24.06 -5,3.36 -20.2,6.74 -27.8,7.17 l 0,8.02 74.7,4.64 2.9,-2.96 0,-140.961 1.3,-0.418 c 9.7,10.551 30.4,25.75 57,25.75 48.5,0 87.8,-39.672 87.8,-101.711 0,-57.82 -46,-100.449 -95.8,-100.449"
         style="fill:#211c1d;fill-opacity:1;fill-rule:nonzero;stroke:none"
         id="path96"
         inkscape:connector-curvature="0" /><path
         d="m 10394.5,990.07 c -43.9,0 -55.3,-48.539 -55.3,-88.621 0,-50.219 15.6,-94.129 55.3,-94.129 37.5,0 54,42.641 54,93.289 0,44.301 -13.1,89.461 -54,89.461 m -2.5,-192.449 c -50.7,0 -95.4,38.418 -95.4,100.449 0,59.93 39.2,101.711 98.3,101.711 59.1,0 96.2,-42.629 96.2,-98.761 0,-56.129 -35.4,-103.399 -99.1,-103.399"
         style="fill:#211c1d;fill-opacity:1;fill-rule:nonzero;stroke:none"
         id="path98"
         inkscape:connector-curvature="0" /><path
         d="m 10638.9,946.602 c -13.6,0 -22.8,5.91 -22.8,20.257 0,4.211 2.9,7.59 2.9,13.082 -21.5,0 -37.1,-18.152 -42.2,-27.429 l 0,-116.473 c 0,-9.289 3.8,-16.059 11.4,-19 7.2,-2.957 19.4,-4.648 27.4,-5.07 l 0,-8.438 -107.2,0 0,8.438 c 7.6,0.422 12.7,1.269 18.6,2.961 8,2.519 11.4,9.699 11.4,19 l 0,121.109 c -0.9,8.863 -4.6,17.723 -11.4,22.359 -5,3.383 -13.1,6.332 -20.7,6.762 l 0,8.02 67.6,4.652 2.9,-2.961 0,-28.699 0.8,0 c 18.2,23.207 39.3,33.758 57,33.758 13.1,0 26.6,-11.821 26.6,-25.75 0,-14.758 -8,-26.578 -22.3,-26.578"
         style="fill:#211c1d;fill-opacity:1;fill-rule:nonzero;stroke:none"
         id="path100"
         inkscape:connector-curvature="0" /><path
         d="m 10708.9,849.531 c 0,-23.211 10.6,-33.75 28.7,-33.75 22,0 31.2,9.688 41.4,22.348 l 1.7,73.859 c -42.2,-13.066 -71.8,-24.886 -71.8,-62.457 m 108.9,-50.218 c -19.8,0 -30.4,8.847 -37.1,28.277 l -1.3,0 c -15.2,-17.738 -37.2,-29.129 -62.5,-29.129 -29.1,0 -48.9,17.719 -48.9,44.738 0,34.61 20.2,46.43 41.3,54.453 24.1,9.278 53.2,16.45 70.9,26.578 l 0,23.629 c 0,7.602 -1.2,42.641 -36.3,42.641 -16,0 -21.9,-9.719 -25.7,-14.352 0,-6.347 3.8,-15.617 3.8,-24.906 0,-8.863 -9.3,-18.14 -24.5,-18.14 -13.9,0 -19,10.957 -19,21.937 0,25.32 35.9,44.742 68,44.742 41.8,0 72.6,-6.332 72.6,-62.472 0,-37.129 -2.1,-80.598 -2.1,-94.528 0,-6.32 5.9,-21.519 19.8,-21.519 13.9,0 15.2,16.449 16.5,32.488 l 9.2,0 c -2.5,-39.25 -18.5,-54.437 -44.7,-54.437"
         style="fill:#211c1d;fill-opacity:1;fill-rule:nonzero;stroke:none"
         id="path102"
         inkscape:connector-curvature="0" /><path
         d="m 10938.1,799.313 c -34.6,0 -51.1,20.667 -51.1,58.246 l 0,117.73 -40.5,0 0,18.16 41.4,0 0,65.421 36.7,0 0,-65.421 57.8,0 0,-18.16 -57.4,0 0,-112.668 c 0,-24.07 6.7,-39.68 32.5,-39.68 21.5,0 23.2,16.868 25.7,32.918 l 9.3,0 c -3.3,-30.39 -23.2,-56.546 -54.4,-56.546"
         style="fill:#211c1d;fill-opacity:1;fill-rule:nonzero;stroke:none"
         id="path104"
         inkscape:connector-curvature="0" /><path
         d="m 11094.2,990.07 c -43.8,0 -55.2,-48.539 -55.2,-88.621 0,-50.219 15.6,-94.129 55.2,-94.129 37.6,0 54.1,42.641 54.1,93.289 0,44.301 -13.1,89.461 -54.1,89.461 m -2.5,-192.449 c -50.6,0 -95.4,38.418 -95.4,100.449 0,59.93 39.3,101.711 98.4,101.711 59.1,0 96.2,-42.629 96.2,-98.761 0,-56.129 -35.5,-103.399 -99.2,-103.399"
         style="fill:#211c1d;fill-opacity:1;fill-rule:nonzero;stroke:none"
         id="path106"
         inkscape:connector-curvature="0" /><path
         d="m 11332.3,946.602 c -13.5,0 -22.8,5.91 -22.8,20.257 0,4.211 2.9,7.59 2.9,13.082 -21.5,0 -37.1,-18.152 -42.2,-27.429 l 0,-116.473 c 0,-9.289 3.8,-16.059 11.4,-19 7.2,-2.957 19.4,-4.648 27.5,-5.07 l 0,-8.438 -107.2,0 0,8.438 c 7.6,0.422 12.6,1.269 18.5,2.961 8.1,2.519 11.4,9.699 11.4,19 l 0,121.109 c -0.8,8.863 -4.6,17.723 -11.4,22.359 -5,3.383 -13,6.332 -20.6,6.762 l 0,8.02 67.5,4.652 2.9,-2.961 0,-28.699 0.9,0 c 18.1,23.207 39.2,33.758 56.9,33.758 13.1,0 26.6,-11.821 26.6,-25.75 0,-14.758 -8,-26.578 -22.3,-26.578"
         style="fill:#211c1d;fill-opacity:1;fill-rule:nonzero;stroke:none"
         id="path108"
         inkscape:connector-curvature="0" /><path
         d="m 11529.8,962.641 c -9.7,-22.371 -30,-71.739 -46.4,-111 -11.4,-28.27 -20.3,-51.059 -22,-54.442 -37.5,-85.25 -52.7,-89.051 -78,-89.051 -11.4,0 -31.3,7.602 -31.3,28.704 0,10.968 9.3,24.48 24.1,24.48 9.3,0 21.9,-4.223 21.9,-21.113 l 0,-14.758 c 24.5,5.91 52.8,73.852 52.8,73.852 -29.6,74.699 -39.7,97.066 -68,165.437 -5,11.82 -19,18.98 -31.2,20.672 l 0,8.879 92.4,0 0,-9.719 c -9.7,-0.422 -22.8,-2.102 -22.8,-8.871 0,-0.422 0.9,-3.789 3,-8.852 8,-21.527 29.5,-72.16 46.8,-116.058 l 0.9,0 c 16,38.41 27.8,66.258 43.9,108.039 1.2,3.379 2.5,8.441 2.5,11.808 0,8.442 -23.6,14.352 -30.4,15.204 l 0,8.449 73,0 0,-8.031 c -8,-1.27 -25.3,-11.399 -31.2,-23.629"
         style="fill:#211c1d;fill-opacity:1;fill-rule:nonzero;stroke:none"
         id="path110"
         inkscape:connector-curvature="0" /><path
         d="m 10016.2,1491.44 c -10.9,-6.32 -16.83,-17.29 -21.91,-30.8 -19.41,-51.47 -56.11,-156.12 -86.5,-243.04 l -15.18,0 c -26.16,87.35 -50.63,164.57 -67.93,217.73 l -79.75,-217.73 -16.03,0 c -33.33,109.7 -66.24,215.61 -77.64,254.01 -2.52,8.87 -6.32,14.78 -15.62,20.68 -7.58,4.22 -19.4,7.17 -27.42,7.59 l 0,9.29 128.69,0 0,-9.29 c -14.76,-0.84 -41.77,-5.49 -41.77,-15.6 0,-2.54 0.85,-8.02 1.69,-10.57 5.9,-18.97 28.27,-92.81 58.24,-187.33 l 61.59,167.1 c 0,14.33 -3.8,28.68 -19.41,38.39 -6.74,4.21 -24.48,7.59 -32.48,8.01 l 0,9.29 131.23,0 0,-9.29 c -14.79,-0.84 -40.51,-5.49 -40.51,-15.6 0,-2.96 0.83,-7.6 1.68,-10.57 5.48,-17.71 29.96,-91.12 60.76,-185.22 23.62,65.83 40.93,116.45 51.04,150.63 6.34,21.94 8.44,30.8 8.44,37.98 0,14.77 -27.84,21.52 -47.24,22.78 l 0,9.29 113.53,0 0,-9.29 c -8.1,-0.42 -19.9,-4.23 -27.5,-8.44"
         style="fill:#211c1d;fill-opacity:1;fill-rule:nonzero;stroke:none"
         id="path112"
         inkscape:connector-curvature="0" /><path
         d="m 10058.8,1471.19 c -13.9,0 -25.7,11.82 -25.7,25.72 0,14.36 11.8,26.6 25.7,26.6 15.7,0 26.6,-11.38 26.6,-24.89 0,-14.77 -11.4,-27.43 -26.6,-27.43 m -45.5,-250.21 0,8.43 c 7.6,0.43 12.6,1.27 18.5,2.96 8.1,2.53 11.4,10.55 11.4,18.99 l 0,121.1 c -0.8,8.86 -4.6,16.45 -11.4,21.09 -5,3.38 -17.2,7.59 -24.9,8.02 l 0,8.03 71.8,4.64 2.9,-2.97 0,-157.38 c 0,-8.86 3.8,-16.03 11.4,-19.41 6.8,-2.96 13.1,-4.64 18.6,-5.07 l 0,-8.43 -98.3,0"
         style="fill:#211c1d;fill-opacity:1;fill-rule:nonzero;stroke:none"
         id="path114"
         inkscape:connector-curvature="0" /><path
         d="m 10254.6,1364.02 c -13.5,0 -22.8,5.91 -22.8,20.26 0,4.22 3,7.59 3,13.07 -21.5,0 -37.2,-18.14 -42.2,-27.42 l 0,-116.46 c 0,-9.28 3.8,-16.04 11.4,-18.99 7.2,-2.96 19.4,-4.64 27.4,-5.06 l 0,-8.44 -107.2,0 0,8.44 c 7.6,0.42 12.7,1.26 18.6,2.95 8,2.53 11.4,9.71 11.4,18.99 l 0,121.1 c -0.9,8.86 -4.6,17.73 -11.4,22.36 -5.1,3.36 -13.1,6.33 -20.7,6.75 l 0,8.03 67.5,4.64 3,-2.97 0,-28.68 0.8,0 c 18.2,23.2 39.3,33.74 57,33.74 13.1,0 26.6,-11.82 26.6,-25.72 0,-14.78 -8,-26.59 -22.4,-26.59"
         style="fill:#211c1d;fill-opacity:1;fill-rule:nonzero;stroke:none"
         id="path116"
         inkscape:connector-curvature="0" /><path
         d="m 10368.1,1407.48 c -26.6,0 -45.1,-26.16 -46.4,-65.82 l 84.8,0.84 c 0,30.37 -6.3,64.98 -38.4,64.98 m 5.1,-191.55 c -63.7,0 -93.3,46.4 -93.3,102.09 0,50.64 32.5,99.17 88.6,99.17 57.8,0 78.9,-37.98 78.9,-81.03 l 0,-3.79 -125.7,0 0,-4.64 c 0,-54.43 17.7,-93.25 62.9,-93.25 32.9,0 43.4,11.82 59.5,37.56 l 7.6,-5.07 c -14.8,-29.96 -43.1,-51.04 -78.5,-51.04"
         style="fill:#211c1d;fill-opacity:1;fill-rule:nonzero;stroke:none"
         id="path118"
         inkscape:connector-curvature="0" /><path
         d="m 10454.6,1220.98 0,8.43 c 7.6,0.42 12.6,1.27 18.6,2.96 8,2.53 11.4,9.71 11.4,18.99 l 0,239.25 c -0.9,9.69 -4.7,19.4 -11.4,24.04 -5.1,3.39 -22,8.01 -29.6,8.44 l 0,8.01 76.4,4.64 3,-2.95 0,-278.89 c 0,-9.29 3.8,-16.04 11.4,-19.42 6.3,-2.96 10.9,-4.65 18.5,-5.07 l 0,-8.43 -98.3,0"
         style="fill:#211c1d;fill-opacity:1;fill-rule:nonzero;stroke:none"
         id="path120"
         inkscape:connector-curvature="0" /><path
         d="m 10647.4,1407.48 c -26.6,0 -45.1,-26.16 -46.4,-65.82 l 84.8,0.84 c 0,30.37 -6.3,64.98 -38.4,64.98 m 5.1,-191.55 c -63.7,0 -93.3,46.4 -93.3,102.09 0,50.64 32.5,99.17 88.6,99.17 57.8,0 78.9,-37.98 78.9,-81.03 l 0,-3.79 -125.7,0 0,-4.64 c 0,-54.43 17.7,-93.25 62.9,-93.25 32.9,0 43.4,11.82 59.5,37.56 l 7.6,-5.07 c -14.8,-29.96 -43.1,-51.04 -78.5,-51.04"
         style="fill:#211c1d;fill-opacity:1;fill-rule:nonzero;stroke:none"
         id="path122"
         inkscape:connector-curvature="0" /><path
         d="m 10812.8,1215.07 c -20.7,0 -43,9.71 -50.2,16.88 l -4.2,-13.07 -13.9,0 -2.1,65.4 8.8,0 c 4.7,-20.68 30,-59.08 63.7,-59.08 29.6,0 39.7,15.61 39.7,36.28 0,21.95 -16.5,30.81 -49.4,40.51 -27,8.02 -57.4,23.63 -57.4,59.91 0,31.22 24.1,55.29 63.3,55.29 16.5,0 33.4,-3.8 43.9,-10.98 l 3.4,11.39 13.1,0 2.9,-58.23 -8.8,0 c -4.3,24.06 -25.8,48.11 -55.7,48.11 -25.8,0 -32.9,-14.77 -32.9,-30.38 0,-24.05 14.3,-28.69 49.3,-40.09 34.6,-11.39 57.4,-27 57.4,-61.6 0,-37.55 -31.2,-60.34 -70.9,-60.34"
         style="fill:#211c1d;fill-opacity:1;fill-rule:nonzero;stroke:none"
         id="path124"
         inkscape:connector-curvature="0" /><path
         d="m 10972.7,1215.07 c -20.7,0 -43,9.71 -50.2,16.88 l -4.2,-13.07 -13.9,0 -2.1,65.4 8.8,0 c 4.7,-20.68 30,-59.08 63.7,-59.08 29.6,0 39.7,15.61 39.7,36.28 0,21.95 -16.5,30.81 -49.4,40.51 -27,8.02 -57.4,23.63 -57.4,59.91 0,31.22 24.1,55.29 63.3,55.29 16.5,0 33.4,-3.8 43.9,-10.98 l 3.4,11.39 13.1,0 2.9,-58.23 -8.8,0 c -4.3,24.06 -25.8,48.11 -55.7,48.11 -25.8,0 -32.9,-14.77 -32.9,-30.38 0,-24.05 14.3,-28.69 49.3,-40.09 34.6,-11.39 57.4,-27 57.4,-61.6 0,-37.55 -31.2,-60.34 -70.9,-60.34"
         style="fill:#211c1d;fill-opacity:1;fill-rule:nonzero;stroke:none"
         id="path126"
         inkscape:connector-curvature="0" /><path
         d="m 11242.7,1215.49 c -34.1,0 -56.5,10.97 -69.2,21.1 l -14.7,-19.83 -14.4,0 -2.9,98.74 9.7,0 c 17.3,-44.73 44.3,-87.35 96.6,-87.35 37.6,0 53.6,21.53 53.6,53.17 0,25.74 -16,45.14 -41.4,55.27 -24,9.71 -36.7,14.35 -60.3,24.89 -32.5,14.35 -49.8,37.56 -49.8,75.11 0,44.73 36.3,78.05 84.4,78.05 21.9,0 46,-9.7 60.8,-21.09 l 14.3,19.83 14.4,0 2.1,-95.77 -9.3,0 c -16.9,47.66 -35.9,84.39 -92.4,84.39 -12.2,0 -40.1,-10.13 -40.1,-43.04 0,-25.75 13.9,-40.51 37.1,-53.18 20.7,-11.39 38.4,-15.17 57.4,-24.46 36.3,-16.46 59.5,-33.34 59.5,-78.05 0,-51.48 -40.9,-87.78 -95.4,-87.78"
         style="fill:#211c1d;fill-opacity:1;fill-rule:nonzero;stroke:none"
         id="path128"
         inkscape:connector-curvature="0" /><path
         d="m 11515.7,1380.06 c -9.7,-22.37 -29.9,-71.73 -46.4,-110.98 -11.4,-28.27 -20.2,-51.05 -21.9,-54.43 -37.6,-85.24 -52.8,-89.03 -78.1,-89.03 -11.4,0 -31.2,7.59 -31.2,28.69 0,10.97 9.3,24.48 24,24.48 9.3,0 22,-4.22 22,-21.1 l 0,-14.77 c 24.5,5.91 52.7,73.84 52.7,73.84 -29.5,74.7 -39.6,97.04 -67.9,165.41 -5.1,11.81 -19,18.97 -31.2,20.66 l 0,8.87 92.4,0 0,-9.71 c -9.7,-0.42 -22.8,-2.12 -22.8,-8.87 0,-0.42 0.8,-3.78 2.9,-8.85 8.1,-21.52 29.6,-72.15 46.9,-116.03 l 0.8,0 c 16.1,38.39 27.9,66.24 43.9,108.02 1.3,3.37 2.5,8.44 2.5,11.82 0,8.43 -23.6,14.33 -30.3,15.18 l 0,8.44 73,0 0,-8.02 c -8.1,-1.27 -25.4,-11.39 -31.3,-23.62"
         style="fill:#211c1d;fill-opacity:1;fill-rule:nonzero;stroke:none"
         id="path130"
         inkscape:connector-curvature="0" /><path
         d="m 11612.8,1215.07 c -20.7,0 -43.1,9.71 -50.3,16.88 l -4.2,-13.07 -13.9,0 -2.1,65.4 8.9,0 c 4.6,-20.68 29.9,-59.08 63.7,-59.08 29.5,0 39.7,15.61 39.7,36.28 0,21.95 -16.5,30.81 -49.4,40.51 -27,8.02 -57.4,23.63 -57.4,59.91 0,31.22 24,55.29 63.3,55.29 16.4,0 33.3,-3.8 43.9,-10.98 l 3.3,11.39 13.1,0 3,-58.23 -8.9,0 c -4.2,24.06 -25.7,48.11 -55.7,48.11 -25.7,0 -32.9,-14.77 -32.9,-30.38 0,-24.05 14.4,-28.69 49.4,-40.09 34.6,-11.39 57.4,-27 57.4,-61.6 0,-37.55 -31.3,-60.34 -70.9,-60.34"
         style="fill:#211c1d;fill-opacity:1;fill-rule:nonzero;stroke:none"
         id="path132"
         inkscape:connector-curvature="0" /><path
         d="m 11781.5,1216.76 c -34.6,0 -51,20.67 -51,58.23 l 0,117.71 -40.5,0 0,18.15 41.3,0 0,65.41 36.7,0 0,-65.41 57.8,0 0,-18.15 -57.3,0 0,-112.65 c 0,-24.04 6.7,-39.66 32.4,-39.66 21.6,0 23.2,16.88 25.8,32.91 l 9.3,0 c -3.4,-30.37 -23.2,-56.54 -54.5,-56.54"
         style="fill:#211c1d;fill-opacity:1;fill-rule:nonzero;stroke:none"
         id="path134"
         inkscape:connector-curvature="0" /><path
         d="m 11928.4,1407.48 c -26.6,0 -45.2,-26.16 -46.5,-65.82 l 84.8,0.84 c 0,30.37 -6.3,64.98 -38.3,64.98 m 5,-191.55 c -63.7,0 -93.2,46.4 -93.2,102.09 0,50.64 32.5,99.17 88.6,99.17 57.8,0 78.9,-37.98 78.9,-81.03 l 0,-3.79 -125.8,0 0,-4.64 c 0,-54.43 17.8,-93.25 62.9,-93.25 32.9,0 43.5,11.82 59.5,37.56 l 7.6,-5.07 c -14.8,-29.96 -43.1,-51.04 -78.5,-51.04"
         style="fill:#211c1d;fill-opacity:1;fill-rule:nonzero;stroke:none"
         id="path136"
         inkscape:connector-curvature="0" /><path
         d="m 12268.8,1220.98 0,8.43 c 7.6,0.42 12.3,1.27 18.2,2.96 8,2.53 11.4,9.71 11.4,18.99 l 0,102.11 c 0,29.12 -16.1,44.71 -34.2,44.71 -30.8,0 -46.4,-20.23 -51.5,-29.1 l 0,-115.61 c 0,-9.28 3.4,-16.03 11,-19.41 5.9,-2.54 11,-4.23 18.6,-4.65 l 0,-8.43 -97.1,0 0,8.43 c 7.6,0.42 11.4,1.27 17.3,2.96 8,2.53 11.4,9.71 11.4,18.99 l 0,102.11 c 0,29.12 -16,44.71 -34.2,44.71 -30.8,0 -46.4,-20.66 -51.4,-29.52 l 0,-114.76 c 0,-9.29 3.8,-16.04 11.3,-19.42 6.4,-2.96 11.4,-4.65 19,-5.07 l 0,-8.43 -98.7,0 0,8.43 c 7.6,0.42 12.7,1.27 18.6,2.96 8,2.53 11.4,9.71 11.4,18.99 l 0,121.94 c -0.9,8.87 -4.7,16.04 -11.4,20.68 -5.1,3.37 -13.9,7.16 -21.5,7.59 l 0,8.03 67.9,4.64 2.9,-2.97 0,-29.1 1.3,0 c 16.5,16.01 31.7,35.02 67.9,35.02 26.2,0 44.8,-14.37 54.5,-36.29 17.3,16.45 33.7,36.29 70,36.29 39.2,0 55.7,-29.12 55.7,-67.52 l 0,-96.2 c 0,-9.28 3.4,-16.03 11,-19.41 5.9,-2.54 12.2,-4.23 19.8,-4.65 l 0,-8.43 -99.2,0"
         style="fill:#211c1d;fill-opacity:1;fill-rule:nonzero;stroke:none"
         id="path138"
         inkscape:connector-curvature="0" /><path
         d="m 12449.9,1215.07 c -20.7,0 -43.1,9.71 -50.3,16.88 l -4.2,-13.07 -13.9,0 -2.1,65.4 8.8,0 c 4.7,-20.68 30,-59.08 63.8,-59.08 29.5,0 39.6,15.61 39.6,36.28 0,21.95 -16.4,30.81 -49.4,40.51 -26.9,8.02 -57.3,23.63 -57.3,59.91 0,31.22 24,55.29 63.3,55.29 16.4,0 33.3,-3.8 43.8,-10.98 l 3.4,11.39 13.1,0 3,-58.23 -8.9,0 c -4.2,24.06 -25.7,48.11 -55.7,48.11 -25.7,0 -32.9,-14.77 -32.9,-30.38 0,-24.05 14.3,-28.69 49.4,-40.09 34.5,-11.39 57.3,-27 57.3,-61.6 0,-37.55 -31.2,-60.34 -70.8,-60.34"
         style="fill:#211c1d;fill-opacity:1;fill-rule:nonzero;stroke:none"
         id="path140"
         inkscape:connector-curvature="0" /><g
         id="g142"
         transform="matrix(10,0,0,10,28.110748,159.55701)"><text
           transform="scale(1,-1)"
           id="text144"
           x="81.209"
           y="-528.97998"><tspan
             style="font-size:109.81700134px;font-variant:normal;font-weight:bold;writing-mode:lr-tb;fill:#211c1d;fill-opacity:1;fill-rule:nonzero;stroke:none;font-family:Helvetica;-inkscape-font-specification:Helvetica-Bold"
             x="81.209 160.49687 227.59506 294.67697 361.77518 392.30429 428.87335 459.40247 520.46069 581.51898 612.0481 691.31598 752.39117 788.96149 874.38037 941.46155 984.19788 1045.2731 1075.7837 1142.8649 1209.9459"
             y="-528.97998"
             sodipodi:role="line"
             id="tspan146">Cognitive Networking </tspan><tspan
             style="font-size:109.81700134px;font-variant:normal;font-weight:bold;writing-mode:lr-tb;fill:#211c1d;fill-opacity:1;fill-rule:nonzero;stroke:none;font-family:Helvetica;-inkscape-font-specification:Helvetica-Bold"
             x="86.454697 164.3605 201.46062 269.12469 342.79459 410.45871 447.55829 484.65836 546.15588 613.81995 656.97864 694.07825 767.74811 841.41797 878.51764 964.41406 1032.0782 1136.3121"
             y="-404.91702"
             sodipodi:role="line"
             id="tspan148">Visualization Demo</tspan></text>
</g><text
         xml:space="preserve"
         style="font-size:345.9491272px;font-style:normal;font-variant:normal;font-weight:normal;font-stretch:normal;line-height:125%;letter-spacing:0px;word-spacing:0px;fill:#3465a4;fill-opacity:1;stroke:none;font-family:Rachana;-inkscape-font-specification:Rachana"
         x="2762.52"
         y="-3134.6755"
         id="text3125-9"
         sodipodi:linespacing="125%"
         transform="scale(1,-1)"><tspan
           sodipodi:role="line"
           id="tspan3127-4"
           x="2762.52"
           y="-3134.6755"
           style="font-size:480.4848938px;font-style:normal;font-variant:normal;font-weight:normal;font-stretch:normal;fill:#3465a4;font-family:Bitstream Vera Sans;-inkscape-font-specification:Bitstream Vera Sans">http://wireless.ece.drexel.edu</tspan></text>
<flowRoot
         xml:space="preserve"
         id="flowRoot3166"
         style="font-size:6px;font-style:normal;font-weight:normal;line-height:125%;letter-spacing:0px;word-spacing:0px;fill:#000000;fill-opacity:1;stroke:none;font-family:Sans"><flowRegion
           id="flowRegion3168"><rect
             id="rect3170"
             width="822.23938"
             height="938.19623"
             x="3668.4526"
             y="1042.5978" /></flowRegion><flowPara
           id="flowPara3172"></flowPara></flowRoot></g></g></svg>